# xmcd
#
# Track frame offsets:
#	150
#	17250
#	33822
#	50988
#	72446
#	95027
#	107533
#	127954
#	146110
#	162687
#	184668
#	199561
#	219579
#	237792
#
# Disc length: 3399 seconds
#
# Revision: 1
# Processed by: cddbd v1.5.2PL0 Copyright (c) Steve Scherf et al.
# Submitted via: audiograbber 1.83.01
#
DISCID=c60d450e
DTITLE=Snopp Dogg - Smokers Handbook
DYEAR=2014
DGENRE=Rap
TTITLE0=Party On Feat. Fab
TTITLE1=Fuk Ya Crew Feat. Dogg Pound
TTITLE2=Gangbang Rookie
TTITLE3=In The Cadillac Feat. Daz Dillinger and Hustle Boyz
TTITLE4=Upside Down Feat. Nipsey Hussle
TTITLE5=Keep Knockin
TTITLE6=Kalifornication Feat. Ras Kass, David Banner and Nipsey Hussle
TTITLE7=No Bitch Feat. Devin
TTITLE8=Hood Raised
TTITLE9=Dirty Dancin Feat. Trey Songz
TTITLE10=Winning Is The Only Thing
TTITLE11=Around The World Feat. Dogg Pound
TTITLE12=Funny Hoes
TTITLE13=Good Kush Feat. Wiz Khalifa
EXTD=
EXTT0=
EXTT1=
EXTT2=
EXTT3=
EXTT4=
EXTT5=
EXTT6=
EXTT7=
EXTT8=
EXTT9=
EXTT10=
EXTT11=
EXTT12=
EXTT13=
PLAYORDER=
